<mxfile host="app.diagrams.net" agent="Mozilla/5.0 (Windows NT 10.0; Win64; x64) AppleWebKit/537.36 (KHTML, like Gecko) Chrome/127.0.0.0 Safari/537.36" version="24.7.14">
  <diagram name="PÃ¡gina-1" id="6OkhViUwXYsMdIaesQhy">
    <mxGraphModel dx="969" dy="530" grid="1" gridSize="10" guides="1" tooltips="1" connect="1" arrows="1" fold="1" page="1" pageScale="1" pageWidth="827" pageHeight="1169" math="0" shadow="0">
      <root>
        <mxCell id="0" />
        <mxCell id="1" parent="0" />
        <mxCell id="9savWCH2HZjStE2X0XIJ-22" style="edgeStyle=orthogonalEdgeStyle;rounded=0;orthogonalLoop=1;jettySize=auto;html=1;exitX=1;exitY=0.25;exitDx=0;exitDy=0;entryX=0;entryY=0.25;entryDx=0;entryDy=0;endArrow=none;endFill=0;" edge="1" parent="1" source="9savWCH2HZjStE2X0XIJ-1" target="9savWCH2HZjStE2X0XIJ-5">
          <mxGeometry relative="1" as="geometry" />
        </mxCell>
        <mxCell id="9savWCH2HZjStE2X0XIJ-1" value="Jugador" style="swimlane;fontStyle=1;align=center;verticalAlign=top;childLayout=stackLayout;horizontal=1;startSize=26;horizontalStack=0;resizeParent=1;resizeParentMax=0;resizeLast=0;collapsible=1;marginBottom=0;whiteSpace=wrap;html=1;" vertex="1" parent="1">
          <mxGeometry x="70" y="150" width="160" height="110" as="geometry" />
        </mxCell>
        <mxCell id="9savWCH2HZjStE2X0XIJ-2" value="-username: string" style="text;strokeColor=none;fillColor=none;align=left;verticalAlign=top;spacingLeft=4;spacingRight=4;overflow=hidden;rotatable=0;points=[[0,0.5],[1,0.5]];portConstraint=eastwest;whiteSpace=wrap;html=1;" vertex="1" parent="9savWCH2HZjStE2X0XIJ-1">
          <mxGeometry y="26" width="160" height="26" as="geometry" />
        </mxCell>
        <mxCell id="9savWCH2HZjStE2X0XIJ-3" value="" style="line;strokeWidth=1;fillColor=none;align=left;verticalAlign=middle;spacingTop=-1;spacingLeft=3;spacingRight=3;rotatable=0;labelPosition=right;points=[];portConstraint=eastwest;strokeColor=inherit;" vertex="1" parent="9savWCH2HZjStE2X0XIJ-1">
          <mxGeometry y="52" width="160" height="8" as="geometry" />
        </mxCell>
        <mxCell id="9savWCH2HZjStE2X0XIJ-4" value="+ GanarPartida(): void&lt;div&gt;+ PerderPartida(): void&lt;br&gt;&lt;/div&gt;" style="text;strokeColor=none;fillColor=none;align=left;verticalAlign=top;spacingLeft=4;spacingRight=4;overflow=hidden;rotatable=0;points=[[0,0.5],[1,0.5]];portConstraint=eastwest;whiteSpace=wrap;html=1;" vertex="1" parent="9savWCH2HZjStE2X0XIJ-1">
          <mxGeometry y="60" width="160" height="50" as="geometry" />
        </mxCell>
        <mxCell id="9savWCH2HZjStE2X0XIJ-5" value="&lt;div&gt;&amp;lt;&amp;lt;Abstract&amp;gt;&amp;gt;&lt;/div&gt;Rango" style="swimlane;fontStyle=1;align=center;verticalAlign=top;childLayout=stackLayout;horizontal=1;startSize=40;horizontalStack=0;resizeParent=1;resizeParentMax=0;resizeLast=0;collapsible=1;marginBottom=0;whiteSpace=wrap;html=1;" vertex="1" parent="1">
          <mxGeometry x="440" y="130" width="240" height="114" as="geometry" />
        </mxCell>
        <mxCell id="9savWCH2HZjStE2X0XIJ-6" value="-mmr: int&lt;div&gt;-jugador: Jugador&lt;/div&gt;&lt;div&gt;&lt;br&gt;&lt;/div&gt;" style="text;strokeColor=none;fillColor=none;align=left;verticalAlign=top;spacingLeft=4;spacingRight=4;overflow=hidden;rotatable=0;points=[[0,0.5],[1,0.5]];portConstraint=eastwest;whiteSpace=wrap;html=1;" vertex="1" parent="9savWCH2HZjStE2X0XIJ-5">
          <mxGeometry y="40" width="240" height="40" as="geometry" />
        </mxCell>
        <mxCell id="9savWCH2HZjStE2X0XIJ-7" value="" style="line;strokeWidth=1;fillColor=none;align=left;verticalAlign=middle;spacingTop=-1;spacingLeft=3;spacingRight=3;rotatable=0;labelPosition=right;points=[];portConstraint=eastwest;strokeColor=inherit;" vertex="1" parent="9savWCH2HZjStE2X0XIJ-5">
          <mxGeometry y="80" width="240" height="8" as="geometry" />
        </mxCell>
        <mxCell id="9savWCH2HZjStE2X0XIJ-8" value="+ &amp;lt;&amp;lt;Abstract&amp;gt;&amp;gt; RegistrarCambio(int): void" style="text;strokeColor=none;fillColor=none;align=left;verticalAlign=top;spacingLeft=4;spacingRight=4;overflow=hidden;rotatable=0;points=[[0,0.5],[1,0.5]];portConstraint=eastwest;whiteSpace=wrap;html=1;" vertex="1" parent="9savWCH2HZjStE2X0XIJ-5">
          <mxGeometry y="88" width="240" height="26" as="geometry" />
        </mxCell>
        <mxCell id="9savWCH2HZjStE2X0XIJ-9" value="Plata" style="swimlane;fontStyle=1;align=center;verticalAlign=top;childLayout=stackLayout;horizontal=1;startSize=26;horizontalStack=0;resizeParent=1;resizeParentMax=0;resizeLast=0;collapsible=1;marginBottom=0;whiteSpace=wrap;html=1;" vertex="1" parent="1">
          <mxGeometry x="270" y="280" width="240" height="60" as="geometry" />
        </mxCell>
        <mxCell id="9savWCH2HZjStE2X0XIJ-11" value="" style="line;strokeWidth=1;fillColor=none;align=left;verticalAlign=middle;spacingTop=-1;spacingLeft=3;spacingRight=3;rotatable=0;labelPosition=right;points=[];portConstraint=eastwest;strokeColor=inherit;" vertex="1" parent="9savWCH2HZjStE2X0XIJ-9">
          <mxGeometry y="26" width="240" height="8" as="geometry" />
        </mxCell>
        <mxCell id="9savWCH2HZjStE2X0XIJ-12" value="+ &amp;lt;&amp;lt;Override&lt;span style=&quot;background-color: initial;&quot;&gt;&amp;gt;&amp;gt; RegistrarCambio(): void&lt;/span&gt;" style="text;strokeColor=none;fillColor=none;align=left;verticalAlign=top;spacingLeft=4;spacingRight=4;overflow=hidden;rotatable=0;points=[[0,0.5],[1,0.5]];portConstraint=eastwest;whiteSpace=wrap;html=1;" vertex="1" parent="9savWCH2HZjStE2X0XIJ-9">
          <mxGeometry y="34" width="240" height="26" as="geometry" />
        </mxCell>
        <mxCell id="9savWCH2HZjStE2X0XIJ-13" value="Oro" style="swimlane;fontStyle=1;align=center;verticalAlign=top;childLayout=stackLayout;horizontal=1;startSize=26;horizontalStack=0;resizeParent=1;resizeParentMax=0;resizeLast=0;collapsible=1;marginBottom=0;whiteSpace=wrap;html=1;" vertex="1" parent="1">
          <mxGeometry x="440" y="360" width="230" height="60" as="geometry" />
        </mxCell>
        <mxCell id="9savWCH2HZjStE2X0XIJ-14" value="" style="line;strokeWidth=1;fillColor=none;align=left;verticalAlign=middle;spacingTop=-1;spacingLeft=3;spacingRight=3;rotatable=0;labelPosition=right;points=[];portConstraint=eastwest;strokeColor=inherit;" vertex="1" parent="9savWCH2HZjStE2X0XIJ-13">
          <mxGeometry y="26" width="230" height="8" as="geometry" />
        </mxCell>
        <mxCell id="9savWCH2HZjStE2X0XIJ-15" value="+ &amp;lt;&amp;lt;Override&lt;span style=&quot;background-color: initial;&quot;&gt;&amp;gt;&amp;gt; RegistrarCambio(): void&lt;/span&gt;" style="text;strokeColor=none;fillColor=none;align=left;verticalAlign=top;spacingLeft=4;spacingRight=4;overflow=hidden;rotatable=0;points=[[0,0.5],[1,0.5]];portConstraint=eastwest;whiteSpace=wrap;html=1;" vertex="1" parent="9savWCH2HZjStE2X0XIJ-13">
          <mxGeometry y="34" width="230" height="26" as="geometry" />
        </mxCell>
        <mxCell id="9savWCH2HZjStE2X0XIJ-16" value="Platino" style="swimlane;fontStyle=1;align=center;verticalAlign=top;childLayout=stackLayout;horizontal=1;startSize=26;horizontalStack=0;resizeParent=1;resizeParentMax=0;resizeLast=0;collapsible=1;marginBottom=0;whiteSpace=wrap;html=1;" vertex="1" parent="1">
          <mxGeometry x="610" y="280" width="240" height="60" as="geometry" />
        </mxCell>
        <mxCell id="9savWCH2HZjStE2X0XIJ-17" value="" style="line;strokeWidth=1;fillColor=none;align=left;verticalAlign=middle;spacingTop=-1;spacingLeft=3;spacingRight=3;rotatable=0;labelPosition=right;points=[];portConstraint=eastwest;strokeColor=inherit;" vertex="1" parent="9savWCH2HZjStE2X0XIJ-16">
          <mxGeometry y="26" width="240" height="8" as="geometry" />
        </mxCell>
        <mxCell id="9savWCH2HZjStE2X0XIJ-18" value="+ &amp;lt;&amp;lt;Override&lt;span style=&quot;background-color: initial;&quot;&gt;&amp;gt;&amp;gt; RegistrarCambio(): void&lt;/span&gt;" style="text;strokeColor=none;fillColor=none;align=left;verticalAlign=top;spacingLeft=4;spacingRight=4;overflow=hidden;rotatable=0;points=[[0,0.5],[1,0.5]];portConstraint=eastwest;whiteSpace=wrap;html=1;" vertex="1" parent="9savWCH2HZjStE2X0XIJ-16">
          <mxGeometry y="34" width="240" height="26" as="geometry" />
        </mxCell>
        <mxCell id="9savWCH2HZjStE2X0XIJ-19" style="edgeStyle=orthogonalEdgeStyle;rounded=0;orthogonalLoop=1;jettySize=auto;html=1;exitX=0.5;exitY=0;exitDx=0;exitDy=0;entryX=-0.012;entryY=0.913;entryDx=0;entryDy=0;entryPerimeter=0;endArrow=block;endFill=0;" edge="1" parent="1" source="9savWCH2HZjStE2X0XIJ-9" target="9savWCH2HZjStE2X0XIJ-6">
          <mxGeometry relative="1" as="geometry" />
        </mxCell>
        <mxCell id="9savWCH2HZjStE2X0XIJ-20" style="edgeStyle=orthogonalEdgeStyle;rounded=0;orthogonalLoop=1;jettySize=auto;html=1;exitX=0.5;exitY=0;exitDx=0;exitDy=0;entryX=0.534;entryY=0.969;entryDx=0;entryDy=0;entryPerimeter=0;endArrow=block;endFill=0;" edge="1" parent="1" source="9savWCH2HZjStE2X0XIJ-13" target="9savWCH2HZjStE2X0XIJ-8">
          <mxGeometry relative="1" as="geometry" />
        </mxCell>
        <mxCell id="9savWCH2HZjStE2X0XIJ-21" style="edgeStyle=orthogonalEdgeStyle;rounded=0;orthogonalLoop=1;jettySize=auto;html=1;exitX=0.5;exitY=0;exitDx=0;exitDy=0;entryX=1;entryY=0.913;entryDx=0;entryDy=0;entryPerimeter=0;endArrow=block;endFill=0;" edge="1" parent="1" source="9savWCH2HZjStE2X0XIJ-16" target="9savWCH2HZjStE2X0XIJ-6">
          <mxGeometry relative="1" as="geometry" />
        </mxCell>
        <mxCell id="9savWCH2HZjStE2X0XIJ-23" value="- rango" style="text;html=1;align=center;verticalAlign=middle;resizable=0;points=[];autosize=1;strokeColor=none;fillColor=none;" vertex="1" parent="1">
          <mxGeometry x="370" y="128" width="60" height="30" as="geometry" />
        </mxCell>
        <mxCell id="9savWCH2HZjStE2X0XIJ-24" value="1" style="text;html=1;align=center;verticalAlign=middle;resizable=0;points=[];autosize=1;strokeColor=none;fillColor=none;" vertex="1" parent="1">
          <mxGeometry x="399" y="158" width="30" height="30" as="geometry" />
        </mxCell>
      </root>
    </mxGraphModel>
  </diagram>
</mxfile>
